# xmcd
#
# Track frame offsets:
#	150
#	12929
#	28518
#	38305
#	53734
#	68495
#	81078
#	88300
#	102907
#	119412
#	133608
#	143730
#	158913
#	171947
#	181640
#	195370
#	211764
#	229867
#
# Disc length: 3175 seconds
#
# Revision: 0
# Processed by: cddbd v1.5.2PL0 Copyright (c) Steve Scherf et al.
# Submitted via: EasyCDDAExtractor 16.0.8.2
#
DISCID=de0c6512
DTITLE=Οι Ρεμπέτες του Αιγαίου - Μάγκες πιάστε τα γεφύρια
DYEAR=2001
DGENRE=Ρεμπέτικη
TTITLE0=Εγώ μάγκας φαινόμουνα [Μ. Γενίτσαρης]
TTITLE1=Πού 'σουν μάγκα το χειμώνα [Γ. Μουφλουζέλης]
TTITLE2=Ο διαβολάκος [Κ. Σκαρπέλης-Π. Μιχαλόπουλος]
TTITLE3=Μού 'φαγες τα δαχτυλίδια [Γ. Μητσάκης]
TTITLE4=Το πικραμένο δειλινό [Λ. Νταράλας]
TTITLE5=Τα δυό σου χέρια πήρανε [Μ. Βαμβακάρης]
TTITLE6=Οι λουλάδες και οι παράδες [Γ. Ιωσηφέλλης]
TTITLE7=Μάγισσες φέρτε βότανα[Γ.Τατασσόπουλος-Ν.Ρούτσος]
TTITLE8=Αλή Μπαμπά [Γ. Μητσάκης]
TTITLE9=Τα τάλληρα [διασκ. Γ. Ιωσηφέλλης]
TTITLE10=Το πορτοφόλι [Σ. Περιστέρης]
TTITLE11=Μάγκες πιάστε τα γεφύρια [διασκ. Γ.Ιωσηφέλλης]
TTITLE12=Ο Καπετανάκης [διασκ. Γ. Ιωσηφέλλης]
TTITLE13=Τα ζάρια [Γ. Ιωσηφέλλης]
TTITLE14=Μέσ' στης πόλης το χαμάμ [Α.Διαμαντίδης Νταλγκάς]
TTITLE15=Σαν βγαίνει ο χότζας στο τζαμί [Γ. Σταμούλης]
TTITLE16=Η παπαδιά [διασκ. Γ. Ιωσηφέλλης]
TTITLE17=Έχω πόνο στην καρδιά [Γ. Ιωσηφέλλης]
EXTD=smart records - nitro music NM 2710392 (# 5204627 103921)\\r\nP and C 2001\\
EXTD=r\nArtists: Giorgos/Tasos/Giannis Iosifellis and Grigoris/Dimitris Basilas 
EXTD=& Nikos Delaportas\n
EXTT0=Genitsaris\n
EXTT1=Mouflouzelis\n
EXTT2=Mixalopoulos and Skarpelis\n
EXTT3=Mitsakis\n
EXTT4=Daralas\n
EXTT5=Vamvakaris\n
EXTT6=Version by Iosifellis\n
EXTT7=Tatasopoulos and Routsos\n
EXTT8=Mitsakis\n
EXTT9=Version by Iosifellis\n
EXTT10=Peristeris\n
EXTT11=Version by Iosifellis\n
EXTT12=Version by Iosifellis\n
EXTT13=Version by Iosifellis\n
EXTT14=Dalgas\n
EXTT15=Stamoulis\n
EXTT16=Version by Iosifellis\n
EXTT17=Version by Iosifellis\n
PLAYORDER=
